<svg xmlns="http://www.w3.org/2000/svg" viewBox="0 0 1100 400" font-family="ui-monospace, SFMono-Regular, Menlo, Consolas, monospace">
  <defs>
    <marker id="la" viewBox="0 0 10 10" refX="9" refY="5" markerWidth="7" markerHeight="7" orient="auto-start-reverse">
      <path d="M 0 0 L 10 5 L 0 10 z" fill="#5a6472"/>
    </marker>
    <marker id="lr" viewBox="0 0 10 10" refX="9" refY="5" markerWidth="7" markerHeight="7" orient="auto-start-reverse">
      <path d="M 0 0 L 10 5 L 0 10 z" fill="#b3423a"/>
    </marker>
  </defs>
  <rect width="1100" height="400" fill="#fffdf8"/>

  <text x="550" y="42" text-anchor="middle" font-size="18" font-weight="bold" fill="#1f2430">what the author gets back</text>

  <!-- the chain -->
  <g font-size="14" fill="#1f2430">
    <rect x="50" y="82" width="120" height="50" rx="8" fill="#fdf3dd" stroke="#c9860a" stroke-width="1.5"/>
    <text x="110" y="112" text-anchor="middle">mint</text>

    <rect x="230" y="82" width="160" height="50" rx="8" fill="#ffffff" stroke="#9aa1ad"/>
    <text x="310" y="112" text-anchor="middle">handoff</text>

    <rect x="450" y="82" width="160" height="50" rx="8" fill="#ffffff" stroke="#9aa1ad"/>
    <text x="530" y="112" text-anchor="middle">resolve</text>

    <rect x="670" y="82" width="130" height="50" rx="8" fill="#ffffff" stroke="#9aa1ad"/>
    <text x="735" y="112" text-anchor="middle">work</text>

    <rect x="860" y="82" width="130" height="50" rx="8" fill="#eef4ee" stroke="#3a7d44" stroke-width="1.5"/>
    <text x="925" y="112" text-anchor="middle" fill="#2c5134">funnel</text>
  </g>
  <line x1="170" y1="107" x2="228" y2="107" stroke="#5a6472" stroke-width="2" marker-end="url(#la)"/>
  <line x1="390" y1="107" x2="448" y2="107" stroke="#5a6472" stroke-width="2" marker-end="url(#la)"/>
  <line x1="610" y1="107" x2="668" y2="107" stroke="#5a6472" stroke-width="2" marker-end="url(#la)"/>
  <line x1="800" y1="107" x2="858" y2="107" stroke="#5a6472" stroke-width="2" marker-end="url(#la)"/>

  <!-- what each stage yields -->
  <g font-size="12" fill="#667085">
    <text x="110" y="162" text-anchor="middle">attributed and</text>
    <text x="110" y="180" text-anchor="middle">signed by you</text>

    <text x="310" y="162" text-anchor="middle">one 30-byte line,</text>
    <text x="310" y="180" text-anchor="middle">not the artifact</text>

    <text x="530" y="162" text-anchor="middle">matched to model,</text>
    <text x="530" y="180" text-anchor="middle">harness, modality</text>

    <text x="735" y="162" text-anchor="middle">record run:</text>
    <text x="735" y="180" text-anchor="middle">counts, no payloads</text>

    <text x="925" y="162" text-anchor="middle" fill="#2c5134">impression: 12</text>
    <text x="925" y="180" text-anchor="middle" fill="#2c5134">resolve: 9, run: 7</text>
  </g>

  <!-- the correction path -->
  <line x1="110" y1="192" x2="110" y2="242" stroke="#b3423a" stroke-width="2" marker-end="url(#lr)"/>
  <rect x="50" y="246" width="120" height="46" rx="8" fill="#fbeeec" stroke="#b3423a" stroke-width="1.5"/>
  <text x="110" y="274" text-anchor="middle" font-size="14" fill="#7a2d27">revoke</text>

  <path d="M 170 269 C 420 269 760 262 921 210" fill="none" stroke="#b3423a" stroke-width="2" stroke-dasharray="6 4" marker-end="url(#lr)"/>
  <rect x="330" y="290" width="440" height="46" fill="#fffdf8"/>
  <text x="550" y="307" text-anchor="middle" font-size="12.5" fill="#7a2d27">travels to every replica: strict resolvers see it now,</text>
  <text x="550" y="327" text-anchor="middle" font-size="12.5" fill="#7a2d27">public pages answer 410, never a stale cache</text>

  <text x="550" y="376" text-anchor="middle" font-size="13" fill="#1f2430">underneath: one append-only log. every number above is a fold, replayable.</text>
</svg>
