<svg xmlns="http://www.w3.org/2000/svg" viewBox="0 0 940 330" font-family="ui-monospace, SFMono-Regular, Menlo, Consolas, monospace">
  <defs>
    <marker id="la" viewBox="0 0 10 10" refX="9" refY="5" markerWidth="7" markerHeight="7" orient="auto-start-reverse">
      <path d="M 0 0 L 10 5 L 0 10 z" fill="#5a6472"/>
    </marker>
    <marker id="lr" viewBox="0 0 10 10" refX="9" refY="5" markerWidth="7" markerHeight="7" orient="auto-start-reverse">
      <path d="M 0 0 L 10 5 L 0 10 z" fill="#b3423a"/>
    </marker>
  </defs>
  <rect width="940" height="330" fill="#fffdf8"/>

  <text x="470" y="36" text-anchor="middle" font-size="18" font-weight="bold" fill="#1f2430">what the author gets back</text>

  <!-- the chain -->
  <g font-size="14" fill="#1f2430">
    <rect x="40" y="70" width="120" height="48" rx="8" fill="#fdf3dd" stroke="#c9860a" stroke-width="1.5"/>
    <text x="100" y="99" text-anchor="middle">mint</text>

    <rect x="220" y="70" width="150" height="48" rx="8" fill="#ffffff" stroke="#9aa1ad"/>
    <text x="295" y="92" text-anchor="middle">handoff</text>
    <text x="295" y="110" text-anchor="middle" font-size="11.5" fill="#667085">one 30-byte line</text>

    <rect x="430" y="70" width="150" height="48" rx="8" fill="#ffffff" stroke="#9aa1ad"/>
    <text x="505" y="92" text-anchor="middle">resolve</text>
    <text x="505" y="110" text-anchor="middle" font-size="11.5" fill="#667085">the right projection</text>

    <rect x="640" y="70" width="130" height="48" rx="8" fill="#ffffff" stroke="#9aa1ad"/>
    <text x="705" y="92" text-anchor="middle">work</text>
    <text x="705" y="110" text-anchor="middle" font-size="11.5" fill="#667085">record run</text>

    <rect x="820" y="70" width="90" height="48" rx="8" fill="#eef4ee" stroke="#3a7d44" stroke-width="1.5"/>
    <text x="865" y="99" text-anchor="middle" fill="#2c5134">funnel</text>
  </g>
  <line x1="160" y1="94" x2="218" y2="94" stroke="#5a6472" stroke-width="2" marker-end="url(#la)"/>
  <line x1="370" y1="94" x2="428" y2="94" stroke="#5a6472" stroke-width="2" marker-end="url(#la)"/>
  <line x1="580" y1="94" x2="638" y2="94" stroke="#5a6472" stroke-width="2" marker-end="url(#la)"/>
  <line x1="770" y1="94" x2="818" y2="94" stroke="#5a6472" stroke-width="2" marker-end="url(#la)"/>

  <!-- what each stage yields -->
  <g font-size="12" fill="#667085">
    <text x="100" y="146" text-anchor="middle">attributed +</text>
    <text x="100" y="162" text-anchor="middle">signed by you</text>
    <text x="295" y="146" text-anchor="middle">instead of the</text>
    <text x="295" y="162" text-anchor="middle">artifact, pasted</text>
    <text x="505" y="146" text-anchor="middle">per model, harness,</text>
    <text x="505" y="162" text-anchor="middle">modality, posture</text>
    <text x="705" y="146" text-anchor="middle">counts only —</text>
    <text x="705" y="162" text-anchor="middle">payloads can't leak</text>
    <text x="865" y="146" text-anchor="middle" fill="#2c5134">impression: 12</text>
    <text x="865" y="162" text-anchor="middle" fill="#2c5134">resolve: 9 · run: 7</text>
  </g>

  <!-- the correction path -->
  <line x1="100" y1="185" x2="100" y2="232" stroke="#b3423a" stroke-width="2" marker-end="url(#lr)"/>
  <rect x="40" y="236" width="120" height="44" rx="8" fill="#fbeeec" stroke="#b3423a" stroke-width="1.5"/>
  <text x="100" y="263" text-anchor="middle" font-size="14" fill="#7a2d27">revoke</text>

  <path d="M 160 258 C 400 258 700 258 862 210" fill="none" stroke="#b3423a" stroke-width="2" stroke-dasharray="6 4" marker-end="url(#lr)"/>
  <text x="505" y="244" text-anchor="middle" font-size="12.5" fill="#7a2d27">travels to every replica — strict resolvers see it immediately;</text>
  <text x="505" y="262" text-anchor="middle" font-size="12.5" fill="#7a2d27">public pages answer 410, never a stale cache</text>

  <text x="470" y="312" text-anchor="middle" font-size="13" fill="#1f2430">one append-only log underneath: every number above is a fold, exactly reconstructable</text>
</svg>
