<svg xmlns="http://www.w3.org/2000/svg" viewBox="0 0 1100 420" font-family="ui-monospace, SFMono-Regular, Menlo, Consolas, monospace">
  <defs>
    <marker id="ra" viewBox="0 0 10 10" refX="9" refY="5" markerWidth="7" markerHeight="7" orient="auto-start-reverse">
      <path d="M 0 0 L 10 5 L 0 10 z" fill="#8a6d3b"/>
    </marker>
  </defs>
  <rect width="1100" height="420" fill="#fffdf8"/>

  <text x="550" y="40" text-anchor="middle" font-size="18" font-weight="bold" fill="#1f2430">one token, three radii</text>

  <!-- panel 1: one machine (40..360, center 200) -->
  <rect x="40" y="70" width="320" height="240" rx="10" fill="#ffffff" stroke="#9aa1ad" stroke-width="1.5"/>
  <text x="200" y="100" text-anchor="middle" font-size="14" font-weight="bold" fill="#1f2430">one machine</text>
  <g font-size="12.5" fill="#1f2430">
    <rect x="62" y="118" width="125" height="36" rx="6" fill="#f5f2ea" stroke="#b9b09c"/>
    <text x="124" y="141" text-anchor="middle">Claude Code</text>
    <rect x="213" y="118" width="125" height="36" rx="6" fill="#f5f2ea" stroke="#b9b09c"/>
    <text x="275" y="141" text-anchor="middle">Codex</text>
    <rect x="140" y="186" width="120" height="36" rx="6" fill="#fdf3dd" stroke="#c9860a" stroke-width="1.5"/>
    <text x="200" y="209" text-anchor="middle" fill="#6b4a08">waggled</text>
  </g>
  <line x1="124" y1="154" x2="168" y2="184" stroke="#8a6d3b" stroke-width="1.8" marker-end="url(#ra)"/>
  <line x1="275" y1="154" x2="231" y2="184" stroke="#8a6d3b" stroke-width="1.8" marker-end="url(#ra)"/>
  <g font-size="12" fill="#667085">
    <text x="200" y="252" text-anchor="middle">every harness, one store:</text>
    <text x="200" y="270" text-anchor="middle">one session mints,</text>
    <text x="200" y="288" text-anchor="middle">another resolves. 323 us.</text>
  </g>

  <!-- panel 2: across machines (390..710, center 550) -->
  <rect x="390" y="70" width="320" height="240" rx="10" fill="#ffffff" stroke="#9aa1ad" stroke-width="1.5"/>
  <text x="550" y="100" text-anchor="middle" font-size="14" font-weight="bold" fill="#1f2430">across machines</text>
  <g font-size="12.5" fill="#6b4a08">
    <rect x="412" y="140" width="125" height="40" rx="6" fill="#fdf3dd" stroke="#c9860a" stroke-width="1.5"/>
    <text x="474" y="165" text-anchor="middle">waggled A</text>
    <rect x="563" y="140" width="125" height="40" rx="6" fill="#fdf3dd" stroke="#c9860a" stroke-width="1.5"/>
    <text x="625" y="165" text-anchor="middle">waggled B</text>
  </g>
  <line x1="537" y1="160" x2="561" y2="160" stroke="#8a6d3b" stroke-width="1.8" marker-end="url(#ra)"/>
  <g font-size="12" fill="#667085">
    <text x="550" y="216" text-anchor="middle">a token minted there</text>
    <text x="550" y="234" text-anchor="middle">resolves here, transparently.</text>
    <text x="550" y="252" text-anchor="middle">strict: revocations bite now.</text>
    <text x="550" y="270" text-anchor="middle">eventual: the author's window.</text>
  </g>

  <!-- panel 3: the edge (740..1060, center 900) -->
  <rect x="740" y="70" width="320" height="240" rx="10" fill="#fef8f1" stroke="#e07b39" stroke-width="1.5"/>
  <text x="900" y="100" text-anchor="middle" font-size="14" font-weight="bold" fill="#7a3c10">the edge</text>
  <g font-size="12.5" fill="#1f2430">
    <rect x="762" y="118" width="125" height="40" rx="6" fill="#ffffff" stroke="#b9b09c"/>
    <text x="824" y="136" text-anchor="middle">laptop</text>
    <text x="824" y="152" text-anchor="middle" font-size="11" fill="#667085">asleep</text>
    <rect x="913" y="118" width="125" height="40" rx="6" fill="#ffffff" stroke="#e07b39"/>
    <text x="975" y="136" text-anchor="middle">Cloudflare</text>
    <text x="975" y="152" text-anchor="middle" font-size="11" fill="#667085">your account</text>
  </g>
  <line x1="887" y1="138" x2="911" y2="138" stroke="#8a6d3b" stroke-width="1.8" marker-end="url(#ra)"/>
  <g font-size="12" fill="#667085">
    <text x="900" y="198" text-anchor="middle" fill="#8a5a2b">waggle edge push</text>
    <text x="900" y="220" text-anchor="middle">records and snapshots</text>
    <text x="900" y="238" text-anchor="middle">replicate; files never leave.</text>
    <text x="900" y="260" text-anchor="middle">grep runs at the edge;</text>
    <text x="900" y="278" text-anchor="middle">only matches travel back.</text>
  </g>

  <!-- the token traveling beneath -->
  <rect x="445" y="342" width="210" height="36" rx="18" fill="#fdf3dd" stroke="#c9860a" stroke-width="1.5"/>
  <text x="550" y="365" text-anchor="middle" font-size="13.5" fill="#6b4a08">7Kp2xQ9f - 30 bytes</text>
  <line x1="200" y1="360" x2="441" y2="360" stroke="#8a6d3b" stroke-width="1.8" marker-end="url(#ra)"/>
  <line x1="659" y1="360" x2="900" y2="360" stroke="#8a6d3b" stroke-width="1.8" marker-end="url(#ra)"/>
  <text x="200" y="342" text-anchor="middle" font-size="12" fill="#667085">the same eight characters,</text>
  <text x="900" y="342" text-anchor="middle" font-size="12" fill="#667085">meaning the same thing, everywhere</text>
</svg>
